<svg height="24" viewBox="0 0 24 24" width="24" xmlns="http://www.w3.org/2000/svg"><path d="m0 11.99925c0 4.74975 2.76 8.8545 6.76275 10.79925l-5.724-15.6825c-.66525 1.49175-1.03875 3.14325-1.03875 4.88325m20.10015-.60525c0-1.4835-.53325-2.51025-.98925-3.309-.60825-.98925-1.179-1.82625-1.179-2.81475 0-1.10325.83625-2.13 2.01525-2.13.05325 0 .1035.00675.15525.00975-2.1345-1.956-4.97925-3.15-8.103-3.15-4.1925 0-7.88025 2.151-10.026 5.40825.282.009.5475.01425.7725.01425 1.25475 0 3.198-.15225 3.198-.15225.6465-.03825.723.91275.0765.9885 0 0-.65025.0765-1.37325.11475l4.3695 12.9975 2.6265-7.87575-1.869-5.12175c-.6465-.03825-1.25925-.11475-1.25925-.11475-.6465-.03825-.57075-1.02675.0765-.9885 0 0 1.9815.15225 3.1605.15225 1.25475 0 3.198-.15225 3.198-.15225.64725-.03825.723.91275.0765.9885 0 0-.651.0765-1.37325.11475l4.3365 12.8985 1.19775-3.999c.5175-1.6605.91275-2.85225.91275-3.879m-7.89 1.65495-3.60075 10.46175c1.0755.3165 2.2125.489 3.39.489 1.39725 0 2.7375-.2415 3.98475-.68025-.0315-.05175-.0615-.10575-.0855-.165zm10.3191-6.806475c.05175.3825.081.792.081 1.23375 0 1.21725-.228 2.586-.91275 4.29825l-3.66525 10.59675c3.56775-2.07975 5.967-5.94525 5.967-10.37175 0-2.0865-.53325-4.04775-1.47-5.757" fill="#21759b" fill-rule="evenodd"/></svg>